<svg width="461" height="527" viewBox="0 0 461 527" fill="none" xmlns="http://www.w3.org/2000/svg">
<mask id="mask0_3167_126597" style="mask-type:alpha" maskUnits="userSpaceOnUse" x="-157" y="0" width="618" height="534">
<rect x="-155.637" y="0.5" width="615.929" height="532.409" fill="#C4C4C4" stroke="#EF5753"/>
</mask>
<g mask="url(#mask0_3167_126597)">
<path d="M247.237 452.764L247.238 452.77C252.796 484.622 242.094 514.752 221.197 533.806C206.904 546.733 196.376 562.379 190.655 581.18L185.623 596.183L185.618 596.198L185.614 596.214C184.664 599.869 181.789 601.88 178.548 602.134C175.3 602.389 171.645 600.88 169.181 597.388L160.287 583.975L160.286 583.974C148.6 566.481 132.819 552.443 114.684 542C86.5169 525.684 65.4033 496.984 61.8609 462.582L61.8605 462.579C56.5654 414.383 88.5404 372.734 135.168 366.726L135.169 366.726C187.914 359.862 238.531 399.148 247.237 452.764Z" fill="#F9CAC6" stroke="#FF7878"/>
<path d="M60.3706 463.218C61.4531 470.687 63.2159 477.869 64.9912 485.046L252.807 469.012C252.776 463.734 252.764 458.465 251.69 452.75C250.616 447.035 249.541 441.32 247.443 435.175L60.6701 451.647C59.981 455.455 59.9974 458.964 60.3706 463.218Z" fill="#FF7878" stroke="#FF7878" stroke-width="1.2529"/>
<path d="M135.933 366.145C96.7595 371.3 67.0639 401.373 61.3343 439.731L240.248 423.793C221 385.453 178.91 360.26 135.933 366.145Z" fill="#FF7878" stroke="#FF7878" stroke-width="1.2529"/>
<path d="M113.506 542.742C131.786 553.259 147.687 567.394 159.459 585.001L168.46 598.563C173.649 605.919 183.975 605.048 186.005 597.247L191.096 582.077C196.856 563.16 207.456 547.416 221.857 534.401C236.246 521.392 246.151 502.46 249.501 481.961L70.9834 497.305C80.0084 516.054 95.2192 532.212 113.506 542.742Z" fill="#FF7878" stroke="#FF7878" stroke-width="1.2529"/>
<path d="M256.098 337.655L256.102 337.658C284.677 354.703 302.115 384.178 305.97 412.526L305.972 412.536C309.142 432.773 316.075 452.301 327.444 469.112C327.445 469.113 327.445 469.114 327.446 469.115L336.698 483.257C338.843 486.907 338.767 490.848 337.238 493.745C335.71 496.639 332.748 498.478 329.064 498.009L329.053 498.007L329.041 498.006L313.71 496.733C293.474 494.028 273.957 497.934 256.206 505.418L256.206 505.417L256.194 505.423C228.805 517.824 194.204 515.313 164.941 495.122C123.405 466.37 107.218 412.395 127.726 370.375L127.727 370.374C150.576 323.098 208.813 308.806 256.098 337.655Z" fill="#FFE6E4" stroke="#FF7878"/>
<path d="M164.886 496.055L164.869 496.043L164.85 496.032C162.27 494.532 159.897 492.458 157.677 490.517C157.076 489.993 156.487 489.478 155.908 488.987L241.5 330.263C247.153 332.121 252.471 334.913 257.167 337.992L257.189 338.006L257.212 338.018C262.529 340.806 266.566 344.12 270.603 347.498L184.347 506.477C177.308 503.521 170.939 500.265 164.886 496.055Z" fill="#F9CAC6" stroke="#FF7878"/>
<path d="M227.634 325.153L144.744 477.936C118.322 447.847 110.806 404.827 127.647 370.296C146.177 332.472 187.788 315.628 227.634 325.153Z" fill="#F9CAC6" stroke="#FF7878"/>
<path d="M256.262 505.718L256.252 505.721L256.244 505.726C238.444 514.073 217.945 515.164 197.688 510.216L280.215 356.355C294.328 372.541 303.762 392.318 306.212 412.512L306.213 412.52L306.214 412.529C309.396 432.832 316.355 452.424 327.766 469.291C327.767 469.292 327.767 469.293 327.768 469.293L337.054 483.482C339.207 487.144 339.131 491.099 337.596 494.006C336.063 496.91 333.089 498.756 329.39 498.285L329.379 498.283L329.367 498.282L313.978 497.005C293.667 494.291 274.078 498.21 256.262 505.718Z" fill="#F9CAC6" stroke="#FF7878"/>
<path d="M37.7073 325.68C62.3447 335.981 148.214 374.881 148.244 374.727" stroke="#FF7878" stroke-width="6" stroke-miterlimit="10" stroke-linecap="round" stroke-linejoin="round"/>
<path d="M66.3116 200.646L66.3143 200.656C72.365 223.148 87.6866 241.557 107.712 255.326L107.713 255.326C111.408 257.851 115.413 261.036 119.021 265.227L119.026 265.233C141.75 290.78 138.3 331.136 110.105 352.604L110.103 352.606C85.1076 371.842 48.3002 368.99 26.839 346.212C26.473 345.759 26.1103 345.313 25.7515 344.872C22.207 340.512 19.0351 336.611 16.7528 331.642L16.7493 331.634L16.7455 331.626C6.42671 311.021 -12.1325 294.886 -34.1465 286.126L-34.1464 286.125L-34.1574 286.121C-44.3331 282.338 -53.3719 275.569 -61.6645 266.764C-88.0338 236.984 -85.3828 191.136 -55.2101 164.645L-55.2079 164.643C-25.7443 138.46 20.5409 139.666 48.0067 168.149L48.0066 168.149L48.0154 168.158C57.2803 177.306 63.3588 188.7 66.3116 200.646Z" fill="#FF7878" stroke="#FF7878"/>
<path d="M-96.8173 294.398L-96.817 294.397C-86.444 261.732 -51.0958 242.908 -17.2881 252.039C-5.69118 255.212 3.73168 261.001 11.3618 268.392C25.8014 283.014 45.7782 291.006 67.3606 293.247L67.3769 293.249L67.3932 293.25C72.5885 293.455 77.0343 293.981 81.0594 295.478L81.072 295.483L81.0847 295.487C110.673 304.76 125.893 336.047 114.657 364.921C104.257 390.109 75.0553 403.768 48.8175 396.298L48.8125 396.297C43.0225 394.712 38.6371 392.527 33.9251 389.625C16.5771 377.972 -4.26193 373.712 -25.0421 376.965C-34.7794 377.931 -45.1307 377.505 -54.9969 374.406C-88.7247 363.596 -107.578 328.061 -96.8173 294.398Z" fill="#F9CAC6" stroke="#FF7878"/>
<path d="M66.2261 347.827C-12.5584 320.856 -47.3336 308.951 -96.812 294.392C-86.4365 261.73 -51.0962 242.897 -17.2908 252.027C-5.69393 255.2 3.72894 260.989 11.359 268.38C25.8045 283.015 45.7756 290.994 67.3448 293.241L67.3612 293.242L67.3776 293.243C72.5729 293.448 77.0187 293.975 81.0438 295.471L81.0563 295.476L81.069 295.48C108.654 304.134 123.73 331.879 116.58 358.982C115.43 360.772 114.485 362.481 113.811 364.103C96.2664 358.111 80.5217 352.721 66.2261 347.827Z" fill="#F9CAC6" stroke="#FF7878"/>
<path d="M309.097 221.085L309.095 221.085C306.483 221.338 304.545 223.541 304.545 226.064L304.545 272.037C304.545 273.982 302.896 275.599 300.808 275.599C298.729 275.599 297.072 273.981 297.072 272.037L297.072 225.927C297.072 223.236 294.779 221.065 292.021 221.065C289.263 221.065 286.97 223.236 286.97 225.927L286.97 270.206C286.97 270.947 286.33 271.591 285.495 271.591C281.912 271.591 279.007 268.791 278.989 265.388L278.989 215.663C278.989 202.689 287.982 191.604 300.325 187.882L300.689 187.773L300.681 187.393L297.838 54.6936C297.838 54.6919 297.838 54.6901 297.838 54.6884C297.841 50.8527 301.13 47.6802 305.184 47.6802L308.202 47.6802L308.599 47.6802L313.703 47.6802C317.765 47.6802 321.045 50.8509 321.049 54.6858L316.803 187.032L316.79 187.434L317.18 187.533C330.187 190.851 339.814 202.251 339.814 215.672L339.814 265.58C339.814 268.862 336.995 271.591 333.512 271.591C332.778 271.591 332.221 271.029 332.221 270.379L332.221 225.927C332.221 223.236 329.928 221.065 327.17 221.065C324.413 221.065 322.12 223.236 322.12 225.927L322.12 272.037C322.12 273.982 320.471 275.599 318.383 275.599C316.304 275.599 314.646 273.981 314.646 272.037L314.646 225.927C314.646 223.064 312.075 220.804 309.097 221.085Z" fill="#F9CAC6" stroke="#FF7878"/>
<path d="M94.6865 113.657L132.07 104.887L135.788 120.029L98.4037 128.807L94.6865 113.657Z" fill="#F9CAC6" stroke="#FF7878"/>
<path d="M150.93 85.9514L159.25 72.6705L192.031 92.3197L183.711 105.601L150.93 85.9514Z" fill="#FF7878" stroke="#FF7878"/>
<path d="M161.609 47.5967L120.871 62.6017L114.245 46.2881L154.983 31.2831L161.609 47.5967Z" fill="#F9CAC6" stroke="#FF7878"/>
<path d="M95.0367 81.653L79.6313 90.6943L56.5347 51.6973L71.9402 42.656L95.0367 81.653Z" fill="#FF7878" stroke="#FF7878"/>
</g>
</svg>
