<svg width="25" height="24" viewBox="0 0 25 24" fill="none" xmlns="http://www.w3.org/2000/svg">
<path d="M12.3846 23.3828C19.0435 23.3828 24.443 18.2607 24.443 11.9439C24.443 5.62704 19.0435 0.504883 12.3846 0.504883C5.72571 0.504883 0.326172 5.62704 0.326172 11.9439C0.326172 18.2607 5.72406 23.3828 12.3846 23.3828Z" fill="white"/>
<rect x="5.64453" y="5.71973" width="13.4771" height="9.58855" rx="1" fill="#FF4E4E"/>
<path fill-rule="evenodd" clip-rule="evenodd" d="M11.7327 6.9866H13.1211C13.2375 6.9866 13.3323 6.89603 13.3323 6.78627C13.3323 6.67591 13.2375 6.58594 13.1211 6.58594H11.7327C11.6163 6.58594 11.5215 6.67591 11.5215 6.78627C11.5215 6.89663 11.6163 6.9866 11.7327 6.9866Z" fill="white"/>
<path d="M11.4961 14.8037H13.2694V18.3363H11.4961V14.8037Z" fill="#FF4E4E"/>
<path d="M10.0195 17.8145H14.9302V18.5046H10.0195V17.8145Z" fill="#FF4E4E"/>
<path fill-rule="evenodd" clip-rule="evenodd" d="M10.9469 11.0575C11.927 11.0575 12.6043 10.1935 12.6043 9.48419C12.6043 8.97088 12.1019 8.74707 11.6242 8.74707C10.5537 8.74707 9.9668 9.68016 9.9668 10.3204C9.9668 10.827 10.475 11.0575 10.9469 11.0575Z" fill="white"/>
<path fill-rule="evenodd" clip-rule="evenodd" d="M15.2234 9.48419C15.2234 10.1935 14.5461 11.0575 13.566 11.0575C13.0942 11.0575 12.5859 10.827 12.5859 10.3204C12.5859 9.68128 13.1728 8.74707 14.2433 8.74707C14.721 8.74596 15.2234 8.97088 15.2234 9.48419Z" fill="white"/>
<path fill-rule="evenodd" clip-rule="evenodd" d="M11.7173 13.3736C12.5941 13.4259 13.4052 13.172 14.0109 12.671L14.2585 13.339L14.6154 11.6276L12.9521 11.6221L13.5144 12.0307C13.0179 12.4973 12.1047 12.8257 11.3605 12.7456C10.5976 12.6654 9.9872 12.1699 9.73954 11.6276H9.68555C9.84166 12.475 10.6105 13.3101 11.7173 13.3736Z" fill="white"/>
</svg>
