<svg width="1922" height="608" viewBox="0 0 1922 608" fill="none" xmlns="http://www.w3.org/2000/svg">
<g opacity="0.6">
<path d="M44.3993 25.4395L49.7898 10.5215L84.5142 23.0658L79.1236 37.9918L44.3993 25.4395Z" fill="#EA1D2C"/>
<path d="M1.73411 7.07773L-4.99996 -7.28504L28.429 -22.9755L35.1631 -8.61269L1.73411 7.07773Z" fill="#C41835"/>
<path d="M112.512 -42.5038L126.632 -31.7297L100.444 3.7387L86.3244 -7.0354L112.512 -42.5038Z" fill="#C41835"/>
<path d="M149.603 16.9264L161.108 27.8453L135.7 54.6397L124.187 43.7208L149.603 16.9264Z" fill="#F1504B"/>
<path d="M176.651 -21.8171L192.501 -22.2274L193.475 14.6893L177.625 15.0997L176.651 -21.8171Z" fill="#C41835"/>
<path d="M227 33.4703L189.693 63.0004L178.679 49.0802L215.986 19.55L227 33.4703Z" fill="#EA1D2C"/>
<path d="M527.399 25.4395L532.79 10.5215L567.514 23.0658L562.124 37.9918L527.399 25.4395Z" fill="#EA1D2C"/>
<path d="M484.734 7.07773L478 -7.28504L511.429 -22.9755L518.163 -8.61269L484.734 7.07773Z" fill="#C41835"/>
<path d="M595.512 -42.5038L609.632 -31.7297L583.444 3.7387L569.324 -7.0354L595.512 -42.5038Z" fill="#C41835"/>
<path d="M632.603 16.9264L644.108 27.8453L618.7 54.6397L607.187 43.7208L632.603 16.9264Z" fill="#F1504B"/>
<path d="M659.651 -21.8171L675.501 -22.2274L676.475 14.6893L660.625 15.0997L659.651 -21.8171Z" fill="#C41835"/>
<path d="M710 33.4703L672.693 63.0004L661.679 49.0802L698.986 19.55L710 33.4703Z" fill="#EA1D2C"/>
<path d="M1010.4 25.4395L1015.79 10.5215L1050.51 23.0658L1045.12 37.9918L1010.4 25.4395Z" fill="#EA1D2C"/>
<path d="M967.734 7.07773L961 -7.28504L994.429 -22.9755L1001.16 -8.61269L967.734 7.07773Z" fill="#C41835"/>
<path d="M1078.51 -42.5038L1092.63 -31.7297L1066.44 3.7387L1052.32 -7.0354L1078.51 -42.5038Z" fill="#C41835"/>
<path d="M1115.6 16.9264L1127.11 27.8453L1101.7 54.6397L1090.19 43.7208L1115.6 16.9264Z" fill="#F1504B"/>
<path d="M1142.65 -21.8171L1158.5 -22.2274L1159.47 14.6893L1143.63 15.0997L1142.65 -21.8171Z" fill="#C41835"/>
<path d="M1193 33.4703L1155.69 63.0004L1144.68 49.0802L1181.99 19.55L1193 33.4703Z" fill="#EA1D2C"/>
<path d="M1493.4 25.4395L1498.79 10.5215L1533.51 23.0658L1528.12 37.9918L1493.4 25.4395Z" fill="#EA1D2C"/>
<path d="M1450.73 7.07773L1444 -7.28504L1477.43 -22.9755L1484.16 -8.61269L1450.73 7.07773Z" fill="#C41835"/>
<path d="M1561.51 -42.5038L1575.63 -31.7297L1549.44 3.7387L1535.32 -7.0354L1561.51 -42.5038Z" fill="#C41835"/>
<path d="M1598.6 16.9264L1610.11 27.8453L1584.7 54.6397L1573.19 43.7208L1598.6 16.9264Z" fill="#F1504B"/>
<path d="M1625.65 -21.8171L1641.5 -22.2274L1642.47 14.6893L1626.63 15.0997L1625.65 -21.8171Z" fill="#C41835"/>
<path d="M1676 33.4703L1638.69 63.0004L1627.68 49.0802L1664.99 19.55L1676 33.4703Z" fill="#EA1D2C"/>
<path d="M90.0737 95.8855L105.666 92.9888L112.416 129.31L96.8238 132.207L90.0737 95.8855Z" fill="#F1504B"/>
<path d="M37.0134 63.0002L53.1768 68.85L39.5719 106.483L23.4084 100.641L37.0134 63.0002Z" fill="#C41835"/>
<path d="M44.3993 218.439L49.7898 203.521L84.5142 216.066L79.1236 230.992L44.3993 218.439Z" fill="#EA1D2C"/>
<path d="M1.73411 200.078L-4.99996 185.715L28.429 170.025L35.1631 184.387L1.73411 200.078Z" fill="#C41835"/>
<path d="M36.3781 131.088L73.5161 150.021L65.1729 165.696L28.0349 146.762L36.3781 131.088Z" fill="#EA1D2C"/>
<path d="M112.512 150.496L126.632 161.27L100.444 196.739L86.3244 185.965L112.512 150.496Z" fill="#C41835"/>
<path d="M149.603 209.926L161.108 220.845L135.7 247.64L124.187 236.721L149.603 209.926Z" fill="#F1504B"/>
<path d="M176.651 171.183L192.501 170.773L193.475 207.689L177.625 208.1L176.651 171.183Z" fill="#C41835"/>
<path d="M227 226.47L189.693 256L178.679 242.08L215.986 212.55L227 226.47Z" fill="#EA1D2C"/>
<path d="M573.074 95.8855L588.666 92.9888L595.416 129.31L579.824 132.207L573.074 95.8855Z" fill="#F1504B"/>
<path d="M520.013 63.0002L536.177 68.85L522.572 106.483L506.408 100.641L520.013 63.0002Z" fill="#C41835"/>
<path d="M527.399 218.439L532.79 203.521L567.514 216.066L562.124 230.992L527.399 218.439Z" fill="#EA1D2C"/>
<path d="M484.734 200.078L478 185.715L511.429 170.025L518.163 184.387L484.734 200.078Z" fill="#C41835"/>
<path d="M519.378 131.088L556.516 150.021L548.173 165.696L511.035 146.762L519.378 131.088Z" fill="#EA1D2C"/>
<path d="M595.512 150.496L609.632 161.27L583.444 196.739L569.324 185.965L595.512 150.496Z" fill="#C41835"/>
<path d="M632.603 209.926L644.108 220.845L618.7 247.64L607.187 236.721L632.603 209.926Z" fill="#F1504B"/>
<path d="M659.651 171.183L675.501 170.773L676.475 207.689L660.625 208.1L659.651 171.183Z" fill="#C41835"/>
<path d="M710 226.47L672.693 256L661.679 242.08L698.986 212.55L710 226.47Z" fill="#EA1D2C"/>
<path d="M1056.07 95.8855L1071.67 92.9888L1078.42 129.31L1062.82 132.207L1056.07 95.8855Z" fill="#F1504B"/>
<path d="M1003.01 63.0002L1019.18 68.85L1005.57 106.483L989.408 100.641L1003.01 63.0002Z" fill="#C41835"/>
<path d="M1010.4 218.439L1015.79 203.521L1050.51 216.066L1045.12 230.992L1010.4 218.439Z" fill="#EA1D2C"/>
<path d="M967.734 200.078L961 185.715L994.429 170.025L1001.16 184.387L967.734 200.078Z" fill="#C41835"/>
<path d="M1002.38 131.088L1039.52 150.021L1031.17 165.696L994.035 146.762L1002.38 131.088Z" fill="#EA1D2C"/>
<path d="M1078.51 150.496L1092.63 161.27L1066.44 196.739L1052.32 185.965L1078.51 150.496Z" fill="#C41835"/>
<path d="M1115.6 209.926L1127.11 220.845L1101.7 247.64L1090.19 236.721L1115.6 209.926Z" fill="#F1504B"/>
<path d="M1142.65 171.183L1158.5 170.773L1159.47 207.689L1143.63 208.1L1142.65 171.183Z" fill="#C41835"/>
<path d="M1193 226.47L1155.69 256L1144.68 242.08L1181.99 212.55L1193 226.47Z" fill="#EA1D2C"/>
<path d="M1539.07 95.8855L1554.67 92.9888L1561.42 129.31L1545.82 132.207L1539.07 95.8855Z" fill="#F1504B"/>
<path d="M1486.01 63.0002L1502.18 68.85L1488.57 106.483L1472.41 100.641L1486.01 63.0002Z" fill="#C41835"/>
<path d="M1493.4 218.439L1498.79 203.521L1533.51 216.066L1528.12 230.992L1493.4 218.439Z" fill="#EA1D2C"/>
<path d="M1450.73 200.078L1444 185.715L1477.43 170.025L1484.16 184.387L1450.73 200.078Z" fill="#C41835"/>
<path d="M1485.38 131.088L1522.52 150.021L1514.17 165.696L1477.03 146.762L1485.38 131.088Z" fill="#EA1D2C"/>
<path d="M1561.51 150.496L1575.63 161.27L1549.44 196.739L1535.32 185.965L1561.51 150.496Z" fill="#C41835"/>
<path d="M1598.6 209.926L1610.11 220.845L1584.7 247.64L1573.19 236.721L1598.6 209.926Z" fill="#F1504B"/>
<path d="M1625.65 171.183L1641.5 170.773L1642.47 207.689L1626.63 208.1L1625.65 171.183Z" fill="#C41835"/>
<path d="M1676 226.47L1638.69 256L1627.68 242.08L1664.99 212.55L1676 226.47Z" fill="#EA1D2C"/>
<path d="M90.0737 288.885L105.666 285.989L112.416 322.31L96.8238 325.207L90.0737 288.885Z" fill="#F1504B"/>
<path d="M37.0134 256L53.1768 261.85L39.5719 299.483L23.4084 293.641L37.0134 256Z" fill="#C41835"/>
<path d="M44.3993 411.439L49.7898 396.521L84.5142 409.066L79.1236 423.992L44.3993 411.439Z" fill="#EA1D2C"/>
<path d="M1.73411 393.078L-4.99996 378.715L28.429 363.024L35.1631 377.387L1.73411 393.078Z" fill="#C41835"/>
<path d="M36.3781 324.088L73.5161 343.021L65.1729 358.695L28.0349 339.762L36.3781 324.088Z" fill="#EA1D2C"/>
<path d="M112.512 343.496L126.632 354.27L100.444 389.739L86.3244 378.965L112.512 343.496Z" fill="#C41835"/>
<path d="M149.603 402.926L161.108 413.845L135.7 440.64L124.187 429.721L149.603 402.926Z" fill="#F1504B"/>
<path d="M176.651 364.183L192.501 363.773L193.475 400.689L177.625 401.1L176.651 364.183Z" fill="#C41835"/>
<path d="M227 419.47L189.693 449L178.679 435.08L215.986 405.55L227 419.47Z" fill="#EA1D2C"/>
<path d="M573.074 288.885L588.666 285.989L595.416 322.31L579.824 325.207L573.074 288.885Z" fill="#F1504B"/>
<path d="M520.013 256L536.177 261.85L522.572 299.483L506.408 293.641L520.013 256Z" fill="#C41835"/>
<path d="M527.399 411.439L532.79 396.521L567.514 409.066L562.124 423.992L527.399 411.439Z" fill="#EA1D2C"/>
<path d="M484.734 393.078L478 378.715L511.429 363.024L518.163 377.387L484.734 393.078Z" fill="#C41835"/>
<path d="M519.378 324.088L556.516 343.021L548.173 358.695L511.035 339.762L519.378 324.088Z" fill="#EA1D2C"/>
<path d="M595.512 343.496L609.632 354.27L583.444 389.739L569.324 378.965L595.512 343.496Z" fill="#C41835"/>
<path d="M632.603 402.926L644.108 413.845L618.7 440.64L607.187 429.721L632.603 402.926Z" fill="#F1504B"/>
<path d="M659.651 364.183L675.501 363.773L676.475 400.689L660.625 401.1L659.651 364.183Z" fill="#C41835"/>
<path d="M710 419.47L672.693 449L661.679 435.08L698.986 405.55L710 419.47Z" fill="#EA1D2C"/>
<path d="M1056.07 288.885L1071.67 285.989L1078.42 322.31L1062.82 325.207L1056.07 288.885Z" fill="#F1504B"/>
<path d="M1003.01 256L1019.18 261.85L1005.57 299.483L989.408 293.641L1003.01 256Z" fill="#C41835"/>
<path d="M1010.4 411.439L1015.79 396.521L1050.51 409.066L1045.12 423.992L1010.4 411.439Z" fill="#EA1D2C"/>
<path d="M967.734 393.078L961 378.715L994.429 363.024L1001.16 377.387L967.734 393.078Z" fill="#C41835"/>
<path d="M1002.38 324.088L1039.52 343.021L1031.17 358.695L994.035 339.762L1002.38 324.088Z" fill="#EA1D2C"/>
<path d="M1078.51 343.496L1092.63 354.27L1066.44 389.739L1052.32 378.965L1078.51 343.496Z" fill="#C41835"/>
<path d="M1115.6 402.926L1127.11 413.845L1101.7 440.64L1090.19 429.721L1115.6 402.926Z" fill="#F1504B"/>
<path d="M1142.65 364.183L1158.5 363.773L1159.47 400.689L1143.63 401.1L1142.65 364.183Z" fill="#C41835"/>
<path d="M1193 419.47L1155.69 449L1144.68 435.08L1181.99 405.55L1193 419.47Z" fill="#EA1D2C"/>
<path d="M1539.07 288.885L1554.67 285.989L1561.42 322.31L1545.82 325.207L1539.07 288.885Z" fill="#F1504B"/>
<path d="M1486.01 256L1502.18 261.85L1488.57 299.483L1472.41 293.641L1486.01 256Z" fill="#C41835"/>
<path d="M1493.4 411.439L1498.79 396.521L1533.51 409.066L1528.12 423.992L1493.4 411.439Z" fill="#EA1D2C"/>
<path d="M1450.73 393.078L1444 378.715L1477.43 363.024L1484.16 377.387L1450.73 393.078Z" fill="#C41835"/>
<path d="M1485.38 324.088L1522.52 343.021L1514.17 358.695L1477.03 339.762L1485.38 324.088Z" fill="#EA1D2C"/>
<path d="M1561.51 343.496L1575.63 354.27L1549.44 389.739L1535.32 378.965L1561.51 343.496Z" fill="#C41835"/>
<path d="M1598.6 402.926L1610.11 413.845L1584.7 440.64L1573.19 429.721L1598.6 402.926Z" fill="#F1504B"/>
<path d="M1625.65 364.183L1641.5 363.773L1642.47 400.689L1626.63 401.1L1625.65 364.183Z" fill="#C41835"/>
<path d="M1676 419.47L1638.69 449L1627.68 435.08L1664.99 405.55L1676 419.47Z" fill="#EA1D2C"/>
<path d="M90.0737 481.885L105.666 478.989L112.416 515.31L96.8238 518.207L90.0737 481.885Z" fill="#F1504B"/>
<path d="M37.0134 449L53.1768 454.85L39.5719 492.483L23.4084 486.641L37.0134 449Z" fill="#C41835"/>
<path d="M44.3993 604.439L49.7898 589.521L84.5142 602.066L79.1236 616.992L44.3993 604.439Z" fill="#EA1D2C"/>
<path d="M1.73411 586.078L-4.99996 571.715L28.429 556.024L35.1631 570.387L1.73411 586.078Z" fill="#C41835"/>
<path d="M36.3781 517.088L73.5161 536.021L65.1729 551.695L28.0349 532.762L36.3781 517.088Z" fill="#EA1D2C"/>
<path d="M112.512 536.496L126.632 547.27L100.444 582.739L86.3244 571.965L112.512 536.496Z" fill="#C41835"/>
<path d="M149.603 595.926L161.108 606.845L135.7 633.64L124.187 622.721L149.603 595.926Z" fill="#F1504B"/>
<path d="M176.651 557.183L192.501 556.773L193.475 593.689L177.625 594.1L176.651 557.183Z" fill="#C41835"/>
<path d="M227 612.47L189.693 642L178.679 628.08L215.986 598.55L227 612.47Z" fill="#EA1D2C"/>
<path d="M573.074 481.885L588.666 478.989L595.416 515.31L579.824 518.207L573.074 481.885Z" fill="#F1504B"/>
<path d="M520.013 449L536.177 454.85L522.572 492.483L506.408 486.641L520.013 449Z" fill="#C41835"/>
<path d="M527.399 604.439L532.79 589.521L567.514 602.066L562.124 616.992L527.399 604.439Z" fill="#EA1D2C"/>
<path d="M484.734 586.078L478 571.715L511.429 556.024L518.163 570.387L484.734 586.078Z" fill="#C41835"/>
<path d="M519.378 517.088L556.516 536.021L548.173 551.695L511.035 532.762L519.378 517.088Z" fill="#EA1D2C"/>
<path d="M595.512 536.496L609.632 547.27L583.444 582.739L569.324 571.965L595.512 536.496Z" fill="#C41835"/>
<path d="M632.603 595.926L644.108 606.845L618.7 633.64L607.187 622.721L632.603 595.926Z" fill="#F1504B"/>
<path d="M659.651 557.183L675.501 556.773L676.475 593.689L660.625 594.1L659.651 557.183Z" fill="#C41835"/>
<path d="M710 612.47L672.693 642L661.679 628.08L698.986 598.55L710 612.47Z" fill="#EA1D2C"/>
<path d="M1056.07 481.885L1071.67 478.989L1078.42 515.31L1062.82 518.207L1056.07 481.885Z" fill="#F1504B"/>
<path d="M1003.01 449L1019.18 454.85L1005.57 492.483L989.408 486.641L1003.01 449Z" fill="#C41835"/>
<path d="M1010.4 604.439L1015.79 589.521L1050.51 602.066L1045.12 616.992L1010.4 604.439Z" fill="#EA1D2C"/>
<path d="M967.734 586.078L961 571.715L994.429 556.024L1001.16 570.387L967.734 586.078Z" fill="#C41835"/>
<path d="M1002.38 517.088L1039.52 536.021L1031.17 551.695L994.035 532.762L1002.38 517.088Z" fill="#EA1D2C"/>
<path d="M1078.51 536.496L1092.63 547.27L1066.44 582.739L1052.32 571.965L1078.51 536.496Z" fill="#C41835"/>
<path d="M1115.6 595.926L1127.11 606.845L1101.7 633.64L1090.19 622.721L1115.6 595.926Z" fill="#F1504B"/>
<path d="M1142.65 557.183L1158.5 556.773L1159.47 593.689L1143.63 594.1L1142.65 557.183Z" fill="#C41835"/>
<path d="M1193 612.47L1155.69 642L1144.68 628.08L1181.99 598.55L1193 612.47Z" fill="#EA1D2C"/>
<path d="M1539.07 481.885L1554.67 478.989L1561.42 515.31L1545.82 518.207L1539.07 481.885Z" fill="#F1504B"/>
<path d="M1486.01 449L1502.18 454.85L1488.57 492.483L1472.41 486.641L1486.01 449Z" fill="#C41835"/>
<path d="M1493.4 604.439L1498.79 589.521L1533.51 602.066L1528.12 616.992L1493.4 604.439Z" fill="#EA1D2C"/>
<path d="M1450.73 586.078L1444 571.715L1477.43 556.024L1484.16 570.387L1450.73 586.078Z" fill="#C41835"/>
<path d="M1485.38 517.088L1522.52 536.021L1514.17 551.695L1477.03 532.762L1485.38 517.088Z" fill="#EA1D2C"/>
<path d="M1561.51 536.496L1575.63 547.27L1549.44 582.739L1535.32 571.965L1561.51 536.496Z" fill="#C41835"/>
<path d="M1598.6 595.926L1610.11 606.845L1584.7 633.64L1573.19 622.721L1598.6 595.926Z" fill="#F1504B"/>
<path d="M1625.65 557.183L1641.5 556.773L1642.47 593.689L1626.63 594.1L1625.65 557.183Z" fill="#C41835"/>
<path d="M1676 612.47L1638.69 642L1627.68 628.08L1664.99 598.55L1676 612.47Z" fill="#EA1D2C"/>
<path d="M341.074 30.115L356.666 33.0117L363.416 -3.30959L347.824 -6.20629L341.074 30.115Z" fill="#F1504B"/>
<path d="M288.013 63.0002L304.177 57.1505L290.572 19.5177L274.408 25.3593L288.013 63.0002Z" fill="#C41835"/>
<path d="M824.074 30.115L839.666 33.0117L846.416 -3.30959L830.824 -6.20629L824.074 30.115Z" fill="#F1504B"/>
<path d="M771.013 63.0002L787.177 57.1505L773.572 19.5177L757.408 25.3593L771.013 63.0002Z" fill="#C41835"/>
<path d="M1307.07 30.115L1322.67 33.0117L1329.42 -3.30959L1313.82 -6.20629L1307.07 30.115Z" fill="#F1504B"/>
<path d="M1254.01 63.0002L1270.18 57.1505L1256.57 19.5177L1240.41 25.3593L1254.01 63.0002Z" fill="#C41835"/>
<path d="M1790.07 30.115L1805.67 33.0117L1812.42 -3.30959L1796.82 -6.20629L1790.07 30.115Z" fill="#F1504B"/>
<path d="M1737.01 63.0002L1753.18 57.1505L1739.57 19.5177L1723.41 25.3593L1737.01 63.0002Z" fill="#C41835"/>
<path d="M341.074 223.115L356.666 226.012L363.416 189.69L347.824 186.794L341.074 223.115Z" fill="#F1504B"/>
<path d="M288.013 256L304.177 250.15L290.572 212.518L274.408 218.359L288.013 256Z" fill="#C41835"/>
<path d="M295.399 100.561L300.79 115.479L335.514 102.935L330.124 88.0086L295.399 100.561Z" fill="#EA1D2C"/>
<path d="M252.734 118.923L246 133.285L279.429 148.976L286.163 134.613L252.734 118.923Z" fill="#C41835"/>
<path d="M287.378 187.912L324.516 168.979L316.173 153.305L279.035 172.238L287.378 187.912Z" fill="#EA1D2C"/>
<path d="M363.512 168.504L377.632 157.73L351.444 122.262L337.324 133.036L363.512 168.504Z" fill="#C41835"/>
<path d="M400.603 109.074L412.108 98.155L386.7 71.3606L375.187 82.2796L400.603 109.074Z" fill="#F1504B"/>
<path d="M427.651 147.817L443.501 148.228L444.475 111.311L428.625 110.901L427.651 147.817Z" fill="#C41835"/>
<path d="M478 92.5302L440.693 63L429.679 76.9203L466.986 106.45L478 92.5302Z" fill="#EA1D2C"/>
<path d="M824.074 223.115L839.666 226.012L846.416 189.69L830.824 186.794L824.074 223.115Z" fill="#F1504B"/>
<path d="M771.013 256L787.177 250.15L773.572 212.518L757.408 218.359L771.013 256Z" fill="#C41835"/>
<path d="M778.399 100.561L783.79 115.479L818.514 102.935L813.124 88.0086L778.399 100.561Z" fill="#EA1D2C"/>
<path d="M735.734 118.923L729 133.285L762.429 148.976L769.163 134.613L735.734 118.923Z" fill="#C41835"/>
<path d="M770.378 187.912L807.516 168.979L799.173 153.305L762.035 172.238L770.378 187.912Z" fill="#EA1D2C"/>
<path d="M846.512 168.504L860.632 157.73L834.444 122.262L820.324 133.036L846.512 168.504Z" fill="#C41835"/>
<path d="M883.603 109.074L895.108 98.155L869.7 71.3606L858.187 82.2796L883.603 109.074Z" fill="#F1504B"/>
<path d="M910.651 147.817L926.501 148.228L927.475 111.311L911.625 110.901L910.651 147.817Z" fill="#C41835"/>
<path d="M961 92.5302L923.693 63L912.679 76.9203L949.986 106.45L961 92.5302Z" fill="#EA1D2C"/>
<path d="M1307.07 223.115L1322.67 226.012L1329.42 189.69L1313.82 186.794L1307.07 223.115Z" fill="#F1504B"/>
<path d="M1254.01 256L1270.18 250.15L1256.57 212.518L1240.41 218.359L1254.01 256Z" fill="#C41835"/>
<path d="M1261.4 100.561L1266.79 115.479L1301.51 102.935L1296.12 88.0086L1261.4 100.561Z" fill="#EA1D2C"/>
<path d="M1218.73 118.923L1212 133.285L1245.43 148.976L1252.16 134.613L1218.73 118.923Z" fill="#C41835"/>
<path d="M1253.38 187.912L1290.52 168.979L1282.17 153.305L1245.03 172.238L1253.38 187.912Z" fill="#EA1D2C"/>
<path d="M1329.51 168.504L1343.63 157.73L1317.44 122.262L1303.32 133.036L1329.51 168.504Z" fill="#C41835"/>
<path d="M1366.6 109.074L1378.11 98.155L1352.7 71.3606L1341.19 82.2796L1366.6 109.074Z" fill="#F1504B"/>
<path d="M1393.65 147.817L1409.5 148.228L1410.47 111.311L1394.63 110.901L1393.65 147.817Z" fill="#C41835"/>
<path d="M1444 92.5302L1406.69 63L1395.68 76.9203L1432.99 106.45L1444 92.5302Z" fill="#EA1D2C"/>
<path d="M1790.07 223.115L1805.67 226.012L1812.42 189.69L1796.82 186.794L1790.07 223.115Z" fill="#F1504B"/>
<path d="M1737.01 256L1753.18 250.15L1739.57 212.518L1723.41 218.359L1737.01 256Z" fill="#C41835"/>
<path d="M1744.4 100.561L1749.79 115.479L1784.51 102.935L1779.12 88.0086L1744.4 100.561Z" fill="#EA1D2C"/>
<path d="M1701.73 118.923L1695 133.285L1728.43 148.976L1735.16 134.613L1701.73 118.923Z" fill="#C41835"/>
<path d="M1736.38 187.912L1773.52 168.979L1765.17 153.305L1728.03 172.238L1736.38 187.912Z" fill="#EA1D2C"/>
<path d="M1812.51 168.504L1826.63 157.73L1800.44 122.262L1786.32 133.036L1812.51 168.504Z" fill="#C41835"/>
<path d="M1849.6 109.074L1861.11 98.155L1835.7 71.3606L1824.19 82.2796L1849.6 109.074Z" fill="#F1504B"/>
<path d="M1876.65 147.817L1892.5 148.228L1893.47 111.311L1877.63 110.901L1876.65 147.817Z" fill="#C41835"/>
<path d="M1927 92.5302L1889.69 63L1878.68 76.9203L1915.99 106.45L1927 92.5302Z" fill="#EA1D2C"/>
<path d="M341.074 416.115L356.666 419.012L363.416 382.69L347.824 379.794L341.074 416.115Z" fill="#F1504B"/>
<path d="M288.013 449L304.177 443.15L290.572 405.518L274.408 411.359L288.013 449Z" fill="#C41835"/>
<path d="M295.399 293.561L300.79 308.479L335.514 295.935L330.124 281.009L295.399 293.561Z" fill="#EA1D2C"/>
<path d="M252.734 311.923L246 326.285L279.429 341.976L286.163 327.613L252.734 311.923Z" fill="#C41835"/>
<path d="M287.378 380.912L324.516 361.979L316.173 346.305L279.035 365.238L287.378 380.912Z" fill="#EA1D2C"/>
<path d="M363.512 361.504L377.632 350.73L351.444 315.262L337.324 326.036L363.512 361.504Z" fill="#C41835"/>
<path d="M400.603 302.074L412.108 291.155L386.7 264.361L375.187 275.28L400.603 302.074Z" fill="#F1504B"/>
<path d="M427.651 340.817L443.501 341.228L444.475 304.311L428.625 303.901L427.651 340.817Z" fill="#C41835"/>
<path d="M478 285.53L440.693 256L429.679 269.92L466.986 299.45L478 285.53Z" fill="#EA1D2C"/>
<path d="M824.074 416.115L839.666 419.012L846.416 382.69L830.824 379.794L824.074 416.115Z" fill="#F1504B"/>
<path d="M771.013 449L787.177 443.15L773.572 405.518L757.408 411.359L771.013 449Z" fill="#C41835"/>
<path d="M778.399 293.561L783.79 308.479L818.514 295.935L813.124 281.009L778.399 293.561Z" fill="#EA1D2C"/>
<path d="M735.734 311.923L729 326.285L762.429 341.976L769.163 327.613L735.734 311.923Z" fill="#C41835"/>
<path d="M770.378 380.912L807.516 361.979L799.173 346.305L762.035 365.238L770.378 380.912Z" fill="#EA1D2C"/>
<path d="M846.512 361.504L860.632 350.73L834.444 315.262L820.324 326.036L846.512 361.504Z" fill="#C41835"/>
<path d="M883.603 302.074L895.108 291.155L869.7 264.361L858.187 275.28L883.603 302.074Z" fill="#F1504B"/>
<path d="M910.651 340.817L926.501 341.228L927.475 304.311L911.625 303.901L910.651 340.817Z" fill="#C41835"/>
<path d="M961 285.53L923.693 256L912.679 269.92L949.986 299.45L961 285.53Z" fill="#EA1D2C"/>
<path d="M1307.07 416.115L1322.67 419.012L1329.42 382.69L1313.82 379.794L1307.07 416.115Z" fill="#F1504B"/>
<path d="M1254.01 449L1270.18 443.15L1256.57 405.518L1240.41 411.359L1254.01 449Z" fill="#C41835"/>
<path d="M1261.4 293.561L1266.79 308.479L1301.51 295.935L1296.12 281.009L1261.4 293.561Z" fill="#EA1D2C"/>
<path d="M1218.73 311.923L1212 326.285L1245.43 341.976L1252.16 327.613L1218.73 311.923Z" fill="#C41835"/>
<path d="M1253.38 380.912L1290.52 361.979L1282.17 346.305L1245.03 365.238L1253.38 380.912Z" fill="#EA1D2C"/>
<path d="M1329.51 361.504L1343.63 350.73L1317.44 315.262L1303.32 326.036L1329.51 361.504Z" fill="#C41835"/>
<path d="M1366.6 302.074L1378.11 291.155L1352.7 264.361L1341.19 275.28L1366.6 302.074Z" fill="#F1504B"/>
<path d="M1393.65 340.817L1409.5 341.228L1410.47 304.311L1394.63 303.901L1393.65 340.817Z" fill="#C41835"/>
<path d="M1444 285.53L1406.69 256L1395.68 269.92L1432.99 299.45L1444 285.53Z" fill="#EA1D2C"/>
<path d="M1790.07 416.115L1805.67 419.012L1812.42 382.69L1796.82 379.794L1790.07 416.115Z" fill="#F1504B"/>
<path d="M1737.01 449L1753.18 443.15L1739.57 405.518L1723.41 411.359L1737.01 449Z" fill="#C41835"/>
<path d="M1744.4 293.561L1749.79 308.479L1784.51 295.935L1779.12 281.009L1744.4 293.561Z" fill="#EA1D2C"/>
<path d="M1701.73 311.923L1695 326.285L1728.43 341.976L1735.16 327.613L1701.73 311.923Z" fill="#C41835"/>
<path d="M1736.38 380.912L1773.52 361.979L1765.17 346.305L1728.03 365.238L1736.38 380.912Z" fill="#EA1D2C"/>
<path d="M1812.51 361.504L1826.63 350.73L1800.44 315.262L1786.32 326.036L1812.51 361.504Z" fill="#C41835"/>
<path d="M1849.6 302.074L1861.11 291.155L1835.7 264.361L1824.19 275.28L1849.6 302.074Z" fill="#F1504B"/>
<path d="M1876.65 340.817L1892.5 341.228L1893.47 304.311L1877.63 303.901L1876.65 340.817Z" fill="#C41835"/>
<path d="M1927 285.53L1889.69 256L1878.68 269.92L1915.99 299.45L1927 285.53Z" fill="#EA1D2C"/>
<path d="M341.074 609.115L356.666 612.012L363.416 575.69L347.824 572.794L341.074 609.115Z" fill="#F1504B"/>
<path d="M288.013 642L304.177 636.15L290.572 598.518L274.408 604.359L288.013 642Z" fill="#C41835"/>
<path d="M295.399 486.561L300.79 501.479L335.514 488.935L330.124 474.009L295.399 486.561Z" fill="#EA1D2C"/>
<path d="M252.734 504.923L246 519.285L279.429 534.976L286.163 520.613L252.734 504.923Z" fill="#C41835"/>
<path d="M287.378 573.912L324.516 554.979L316.173 539.305L279.035 558.238L287.378 573.912Z" fill="#EA1D2C"/>
<path d="M363.512 554.504L377.632 543.73L351.444 508.262L337.324 519.036L363.512 554.504Z" fill="#C41835"/>
<path d="M400.603 495.074L412.108 484.155L386.7 457.361L375.187 468.28L400.603 495.074Z" fill="#F1504B"/>
<path d="M427.651 533.817L443.501 534.228L444.475 497.311L428.625 496.901L427.651 533.817Z" fill="#C41835"/>
<path d="M478 478.53L440.693 449L429.679 462.92L466.986 492.45L478 478.53Z" fill="#EA1D2C"/>
<path d="M824.074 609.115L839.666 612.012L846.416 575.69L830.824 572.794L824.074 609.115Z" fill="#F1504B"/>
<path d="M771.013 642L787.177 636.15L773.572 598.518L757.408 604.359L771.013 642Z" fill="#C41835"/>
<path d="M778.399 486.561L783.79 501.479L818.514 488.935L813.124 474.009L778.399 486.561Z" fill="#EA1D2C"/>
<path d="M735.734 504.923L729 519.285L762.429 534.976L769.163 520.613L735.734 504.923Z" fill="#C41835"/>
<path d="M770.378 573.912L807.516 554.979L799.173 539.305L762.035 558.238L770.378 573.912Z" fill="#EA1D2C"/>
<path d="M846.512 554.504L860.632 543.73L834.444 508.262L820.324 519.036L846.512 554.504Z" fill="#C41835"/>
<path d="M883.603 495.074L895.108 484.155L869.7 457.361L858.187 468.28L883.603 495.074Z" fill="#F1504B"/>
<path d="M910.651 533.817L926.501 534.228L927.475 497.311L911.625 496.901L910.651 533.817Z" fill="#C41835"/>
<path d="M961 478.53L923.693 449L912.679 462.92L949.986 492.45L961 478.53Z" fill="#EA1D2C"/>
<path d="M1307.07 609.115L1322.67 612.012L1329.42 575.69L1313.82 572.794L1307.07 609.115Z" fill="#F1504B"/>
<path d="M1254.01 642L1270.18 636.15L1256.57 598.518L1240.41 604.359L1254.01 642Z" fill="#C41835"/>
<path d="M1261.4 486.561L1266.79 501.479L1301.51 488.935L1296.12 474.009L1261.4 486.561Z" fill="#EA1D2C"/>
<path d="M1218.73 504.923L1212 519.285L1245.43 534.976L1252.16 520.613L1218.73 504.923Z" fill="#C41835"/>
<path d="M1253.38 573.912L1290.52 554.979L1282.17 539.305L1245.03 558.238L1253.38 573.912Z" fill="#EA1D2C"/>
<path d="M1329.51 554.504L1343.63 543.73L1317.44 508.262L1303.32 519.036L1329.51 554.504Z" fill="#C41835"/>
<path d="M1366.6 495.074L1378.11 484.155L1352.7 457.361L1341.19 468.28L1366.6 495.074Z" fill="#F1504B"/>
<path d="M1393.65 533.817L1409.5 534.228L1410.47 497.311L1394.63 496.901L1393.65 533.817Z" fill="#C41835"/>
<path d="M1444 478.53L1406.69 449L1395.68 462.92L1432.99 492.45L1444 478.53Z" fill="#EA1D2C"/>
<path d="M1790.07 609.115L1805.67 612.012L1812.42 575.69L1796.82 572.794L1790.07 609.115Z" fill="#F1504B"/>
<path d="M1737.01 642L1753.18 636.15L1739.57 598.518L1723.41 604.359L1737.01 642Z" fill="#C41835"/>
<path d="M1744.4 486.561L1749.79 501.479L1784.51 488.935L1779.12 474.009L1744.4 486.561Z" fill="#EA1D2C"/>
<path d="M1701.73 504.923L1695 519.285L1728.43 534.976L1735.16 520.613L1701.73 504.923Z" fill="#C41835"/>
<path d="M1736.38 573.912L1773.52 554.979L1765.17 539.305L1728.03 558.238L1736.38 573.912Z" fill="#EA1D2C"/>
<path d="M1812.51 554.504L1826.63 543.73L1800.44 508.262L1786.32 519.036L1812.51 554.504Z" fill="#C41835"/>
<path d="M1849.6 495.074L1861.11 484.155L1835.7 457.361L1824.19 468.28L1849.6 495.074Z" fill="#F1504B"/>
<path d="M1876.65 533.817L1892.5 534.228L1893.47 497.311L1877.63 496.901L1876.65 533.817Z" fill="#C41835"/>
<path d="M1927 478.53L1889.69 449L1878.68 462.92L1915.99 492.45L1927 478.53Z" fill="#EA1D2C"/>
</g>
</svg>
