<svg width="124" height="125" viewBox="0 0 124 125" fill="none" xmlns="http://www.w3.org/2000/svg">
<path d="M62 124.494C96.2417 124.494 124 96.6251 124 62.247C124 27.8689 96.2417 0 62 0C27.7583 0 0 27.8689 0 62.247C0 96.6251 27.7583 124.494 62 124.494Z" fill="white"/>
<g clip-path="url(#clip0_7047_19625)">
<path d="M89.6975 55.3594C88.4375 54.4481 86.8625 53.3006 86.5588 52.5469C86.21 51.7031 86.5137 49.7231 86.7612 48.1256C87.2337 45.0769 87.7625 41.6119 85.49 39.3394C83.2288 37.0781 79.775 37.6069 76.7375 38.0794C75.14 38.3269 73.1487 38.6306 72.305 38.2819C71.5512 37.9669 70.415 36.4031 69.5037 35.1544C67.6475 32.6119 65.555 29.7206 62.225 29.7206C58.9063 29.7206 56.825 32.6006 54.98 35.1319C54.0688 36.3919 52.9212 37.9669 52.145 38.2819C51.3012 38.6306 49.3325 38.3269 47.7462 38.0906C44.6862 37.6294 41.21 37.1006 38.9938 39.4069C36.7325 41.6681 37.2612 45.1219 37.7337 48.1594C37.9812 49.7569 38.285 51.7481 37.9363 52.5919C37.6325 53.3456 36.0687 54.4819 34.8087 55.4044C32.2662 57.2494 29.375 59.3531 29.375 62.6719C29.375 65.9906 32.255 68.0719 34.7862 69.9169C36.0462 70.8281 37.6212 71.9756 37.925 72.7294C38.2737 73.5731 37.97 75.5531 37.7225 77.1506C37.25 80.1994 36.7213 83.6644 38.9938 85.9369C41.255 88.1981 44.7087 87.6694 47.7462 87.1969C49.3437 86.9494 51.335 86.6456 52.1788 86.9944C52.9325 87.3094 54.0688 88.8731 54.98 90.1219C56.8363 92.6644 58.9287 95.5556 62.2587 95.5556C65.5775 95.5556 67.6587 92.6756 69.5037 90.1444C70.415 88.8844 71.5625 87.3094 72.3162 87.0056C72.6537 86.8706 73.1713 86.8369 73.7788 86.8594C74.6225 86.9044 75.6463 87.0619 76.5463 87.2081C77.885 87.4219 79.2913 87.6469 80.6638 87.6469C81.4625 87.6469 82.2388 87.5681 82.9813 87.3656C83.0488 87.3544 83.105 87.3319 83.1725 87.3094C83.2512 87.2869 83.3188 87.2644 83.3975 87.2419C83.5663 87.1856 83.7238 87.1294 83.8813 87.0619C83.8925 87.0619 83.8925 87.0619 83.9038 87.0506C84.4888 86.7919 85.0512 86.4431 85.535 85.9481C85.5912 85.8919 85.6362 85.8244 85.6812 85.7681C87.8637 83.4281 87.3238 79.9969 86.84 76.9706C86.5925 75.4294 86.2888 73.5169 86.615 72.7519C86.66 72.6506 86.6825 72.5606 86.705 72.4594C87.1887 71.7169 88.5612 70.7156 89.6975 69.8944C92.2512 68.0381 95.1313 65.9456 95.1313 62.6156C95.12 59.2856 92.24 57.2044 89.6975 55.3594Z" fill="#EA1D2C"/>
<path d="M74.7348 45.8082C73.7786 45.0994 72.4398 45.2907 71.7311 46.2469L49.1636 76.4757C48.4548 77.4207 48.6461 78.7707 49.6023 79.4794C49.9848 79.7719 50.4348 79.9069 50.8848 79.9069C51.5373 79.9069 52.1898 79.6144 52.6061 79.0407L75.1736 48.8119C75.8823 47.8669 75.6911 46.5169 74.7348 45.8082Z" fill="white"/>
<path d="M60.3012 54.8532C60.3012 50.2632 56.8362 46.7982 52.2462 46.7982C47.6562 46.7982 44.1912 50.2632 44.1912 54.8532C44.1912 59.4432 47.6562 62.9082 52.2462 62.9082C56.8362 62.9082 60.3012 59.4432 60.3012 54.8532ZM52.2462 50.7807C54.6087 50.7807 56.3299 52.4907 56.3299 54.8644C56.3299 57.2269 54.6199 58.9482 52.2462 58.9482C49.8837 58.9482 48.1624 57.2269 48.1624 54.8644C48.1624 52.4907 49.8837 50.7807 52.2462 50.7807Z" fill="white"/>
<path d="M72.2486 62.3344C67.6586 62.3344 64.1936 65.7994 64.1936 70.3894C64.1936 74.9794 67.6586 78.4444 72.2486 78.4444C76.8386 78.4444 80.3036 74.9794 80.3036 70.3894C80.3036 65.7881 76.8386 62.3344 72.2486 62.3344ZM76.3211 70.3894C76.3211 72.7519 74.5999 74.4731 72.2374 74.4731C69.8749 74.4731 68.1536 72.7519 68.1536 70.3894C68.1536 68.0269 69.8749 66.3056 72.2374 66.3056C74.6111 66.3056 76.3211 68.0156 76.3211 70.3894Z" fill="white"/>
</g>
<defs>
<clipPath id="clip0_7047_19625">
<rect width="65.745" height="65.8463" fill="white" transform="translate(29.375 29.7206)"/>
</clipPath>
</defs>
</svg>
