<svg width="122" height="124" viewBox="0 0 122 124" fill="none" xmlns="http://www.w3.org/2000/svg">
<path d="M61 124C94.3326 124 121.354 96.2417 121.354 62C121.354 27.7583 94.3326 0 61 0C27.6674 0 0.645996 27.7583 0.645996 62C0.645996 96.2417 27.6674 124 61 124Z" fill="white"/>
<path d="M69.3931 58.0939C66.8756 57.4546 64.4872 57.2263 62.1849 56.998C59.8826 56.7697 57.7309 56.5643 55.7943 55.9479C52.7605 54.989 51.1036 52.9115 51.1036 50.1263C51.1036 45.7201 55.1273 42.524 60.6572 42.524C65.9288 42.524 69.7373 45.1265 70.3829 49.1674C70.4689 49.7153 70.9208 50.1263 71.4372 50.1263H79.5061C79.8073 50.1263 80.087 49.9893 80.3022 49.761C80.4958 49.5327 80.6034 49.2131 80.5819 48.8935C79.9794 40.8117 74.385 34.6705 65.9719 32.867V23.1415C65.9719 22.5023 65.4985 22 64.896 22H57.236C56.6335 22 56.1601 22.5023 56.1601 23.1415V32.7756C46.9939 34.465 41.0552 41.4281 41.0552 50.4915C41.0552 58.2537 45.3586 63.8926 52.8896 65.9701C55.1704 66.5637 57.6448 66.8148 59.8395 67.0203C62.2494 67.2714 64.5518 67.4997 66.4022 68.1161C68.6615 68.8467 71.3511 70.4904 71.3511 74.303C71.3511 79.1201 67.2629 82.3619 61.1951 82.3619C55.364 82.3619 51.2543 79.4853 50.7379 75.0335C50.6733 74.4628 50.2215 74.029 49.662 74.029H41.6147C41.3134 74.029 41.0337 74.166 40.8401 74.3943C40.6464 74.6226 40.5388 74.9422 40.5603 75.239C41.0767 83.823 47.2091 90.4893 56.1601 92.2243V101.859C56.1601 102.498 56.6335 103 57.236 103H64.896C65.4985 103 65.9719 102.498 65.9719 101.859V92.2243C75.3748 90.3523 81.4426 83.1153 81.4426 73.7551C81.4211 65.7418 77.0316 60.0344 69.3931 58.0939Z" fill="#EA1D2C"/>
</svg>
