<svg width="128" height="124" viewBox="0 0 128 124" fill="none" xmlns="http://www.w3.org/2000/svg">
<path d="M64 124C99.2017 124 127.738 96.2417 127.738 62C127.738 27.7583 99.2017 0 64 0C28.7983 0 0.261719 27.7583 0.261719 62C0.261719 96.2417 28.7983 124 64 124Z" fill="white"/>
<path fill-rule="evenodd" clip-rule="evenodd" d="M85.3185 39.2061H48.8882C42.8783 39.2061 37.5297 43.8669 36.9416 49.6163L34.3145 75.2953C33.7264 81.0452 38.1214 85.7061 44.1313 85.7061H80.5615C86.5709 85.7061 91.9194 81.0452 92.5081 75.2958L95.1353 49.6168C95.7234 43.8669 91.3284 39.2061 85.3185 39.2061ZM52.1474 74.8029C50.4165 74.8029 49.0136 73.4741 49.0136 71.8344C49.0136 70.1948 50.4165 68.8659 52.1474 68.8659C53.8783 68.8659 55.2812 70.1948 55.2812 71.8344C55.2812 73.4741 53.8783 74.8029 52.1474 74.8029ZM78.8265 74.8029C77.0956 74.8029 75.6927 73.4741 75.6927 71.8344C75.6927 70.1948 77.0956 68.8659 78.8265 68.8659C80.5574 68.8659 81.9603 70.1948 81.9603 71.8344C81.9603 73.4741 80.5574 74.8029 78.8265 74.8029ZM83.2502 61.7284L82.0734 69.0186C81.2 68.3453 80.1269 67.9229 78.8939 67.9229C77.9766 67.9229 77.1928 68.0905 76.5309 68.3853L77.7247 61.2255C78.123 58.6172 76.8613 57.2124 74.7121 56.9987C73.3783 56.8593 71.9034 57.5687 70.1613 59.1495C70.1625 59.643 70.125 60.1331 70.0471 60.6199L68.8393 67.8435C68.7901 68.1543 68.6325 68.4047 68.3666 68.594C68.1 68.7838 67.7913 68.8743 67.4393 68.8648L65.1636 68.7405C64.7788 68.7299 64.4777 68.6173 64.2615 68.4014C64.0442 68.1854 63.9616 67.9212 64.0126 67.6104L65.337 60.0349C65.8015 57.2212 64.8016 55.697 62.2922 55.4461C60.6585 55.2752 59.5239 55.9735 57.6711 57.5632L55.6532 69.2689C54.9995 68.4385 53.9352 67.9223 52.2991 67.9223C51.5616 67.9223 50.8248 68.0278 50.1259 68.2193L52.6271 54.2877L48.9275 54.3793C47.3096 54.2078 45.9799 53.056 45.9799 51.8088C45.9799 50.5616 47.3096 49.719 48.9275 49.9244L56.3391 49.9527C57.7854 50.1381 58.9428 51.2238 58.9428 52.3805C58.9428 52.5803 58.9065 52.7685 58.8415 52.9445C59.9263 52.3455 60.959 51.9037 61.9408 51.6179C63.0344 51.2993 63.6781 51.231 65.0793 51.4086C68.3297 51.8205 68.9283 53.2142 70.176 55.576C72.9449 53.6882 74.7191 52.9234 77.1272 53.2342C79.4726 53.5373 80.8849 54.3915 82.0089 55.7903C83.1213 57.1718 83.6315 59.144 83.2502 61.7284Z" fill="#EA1D2C"/>
</svg>
