<svg width="124" height="124" viewBox="0 0 124 124" fill="none" xmlns="http://www.w3.org/2000/svg">
<path d="M62 124C96.2417 124 124 96.2417 124 62C124 27.7583 96.2417 0 62 0C27.7583 0 0 27.7583 0 62C0 96.2417 27.7583 124 62 124Z" fill="white"/>
<path d="M91.1991 96.3978L85.57 39.2881L37.7546 39.3218L32 96.3978" fill="#EA1D2C"/>
<path d="M91.1991 96.3978L85.57 39.2881L37.7546 39.3218L32 96.3978" stroke="#EA1D2C" stroke-width="5" stroke-miterlimit="10"/>
<path d="M73.7874 44.3848L73.6335 28.7471C73.6335 22.2596 68.5227 17 62.2189 17C55.915 17 50.8042 22.2596 50.8042 28.7471V44.8584" stroke="#EA1D2C" stroke-width="2.5" stroke-miterlimit="10" stroke-linecap="round"/>
<path fill-rule="evenodd" clip-rule="evenodd" d="M55.0236 67.8428C59.9408 67.8428 63.3407 63.4144 63.3407 59.7827C63.3407 57.155 60.8214 56.0029 58.4249 56.0029C53.0525 56.0029 50.1079 60.7853 50.1079 64.063C50.1079 66.6617 52.6571 67.8428 55.0236 67.8428Z" fill="white"/>
<path fill-rule="evenodd" clip-rule="evenodd" d="M75.8761 59.7827C75.8761 63.4144 72.6565 67.8428 67.9982 67.8428C65.7562 67.8428 63.3398 66.6617 63.3398 64.063C63.3398 60.7853 66.1294 56.0029 71.2178 56.0029C73.4895 56.0029 75.8761 57.1536 75.8761 59.7827Z" fill="white"/>
<path fill-rule="evenodd" clip-rule="evenodd" d="M58.7641 79.6487C63.1008 79.9155 67.1098 78.6109 70.1004 76.0294L71.3256 79.4695L73.091 70.6595L64.8662 70.6289L67.6486 72.7352C65.1953 75.1374 60.6799 76.8283 57.0001 76.4129C53.2316 75.9975 50.2101 73.4466 48.9835 70.6595H48.7148C49.4913 75.0207 53.2907 79.3222 58.7641 79.6487Z" fill="white"/>
</svg>
