<svg width="60" height="47" viewBox="0 0 60 47" fill="none" xmlns="http://www.w3.org/2000/svg">
<circle cx="23.5" cy="23.5" r="23.5" fill="#F2F2F2"/>
<g clip-path="url(#clip0_7047_19092)">
<path d="M54.6062 16.1637C54.6062 13.1425 52.1467 10.683 49.1255 10.683H21.3542C18.3331 10.683 15.8735 13.1425 15.8735 16.1637C15.8735 16.8802 16.4545 17.4612 17.1711 17.4612H53.3086C54.0252 17.4612 54.6062 16.8802 54.6062 16.1637Z" fill="#EA1D2C"/>
<path d="M54.6062 16.1637C54.6062 13.1425 52.1467 10.683 49.1255 10.683H21.3542C18.3331 10.683 15.8735 13.1425 15.8735 16.1637C15.8735 16.8802 16.4545 17.4612 17.1711 17.4612H53.3086C54.0252 17.4612 54.6062 16.8802 54.6062 16.1637Z" fill="#EA1D2C"/>
<path d="M54.6062 16.1637C54.6062 13.1425 52.1467 10.683 49.1255 10.683H21.3542C18.3331 10.683 15.8735 13.1425 15.8735 16.1637C15.8735 16.8802 16.4545 17.4612 17.1711 17.4612H53.3086C54.0252 17.4612 54.6062 16.8802 54.6062 16.1637Z" fill="#EA1D2C"/>
<path d="M54.6062 16.1637C54.6062 13.1425 52.1467 10.683 49.1255 10.683H21.3542C18.3331 10.683 15.8735 13.1425 15.8735 16.1637C15.8735 16.8802 16.4545 17.4612 17.1711 17.4612H53.3086C54.0252 17.4612 54.6062 16.8802 54.6062 16.1637Z" fill="#EA1D2C"/>
<path d="M54.6062 16.1637C54.6062 13.1425 52.1467 10.683 49.1255 10.683H21.3542C18.3331 10.683 15.8735 13.1425 15.8735 16.1637C15.8735 16.8802 16.4545 17.4612 17.1711 17.4612H53.3086C54.0252 17.4612 54.6062 16.8802 54.6062 16.1637Z" fill="#EA1D2C"/>
<path d="M52.6691 20.3658H17.8097C16.7445 20.3658 15.873 21.2373 15.873 22.3025V33.2832C15.873 36.3043 18.3326 38.7639 21.3537 38.7639H49.125C52.1462 38.7639 54.6057 36.3043 54.6057 33.2832V22.3025C54.6057 21.2373 53.7342 20.3658 52.6691 20.3658ZM28.4805 31.9856H22.9418C22.1477 31.9856 21.4893 31.3272 21.4893 30.5332C21.4893 29.7391 22.1477 29.0807 22.9418 29.0807H28.4805C29.2745 29.0807 29.933 29.7391 29.933 30.5332C29.933 31.3272 29.2939 31.9856 28.4805 31.9856Z" fill="#EA1D2C"/>
</g>
<path d="M52.5 43C56.6421 43 60 39.6421 60 35.5C60 31.3579 56.6421 28 52.5 28C48.3579 28 45 31.3579 45 35.5C45 39.6421 48.3579 43 52.5 43Z" fill="#5972EE"/>
<path d="M51.6726 39.2549C51.4318 39.2549 51.2063 39.1575 51.0372 38.9935L48.2652 36.2215C47.9116 35.8679 47.9116 35.2992 48.2652 34.9507C48.6187 34.5972 49.1875 34.5972 49.5359 34.9507L51.6726 37.0874L56.4635 32.2658C56.8119 31.9123 57.3858 31.9123 57.7342 32.2607C58.0877 32.6091 58.0877 33.1779 57.7393 33.5314L52.3079 38.9935C52.1389 39.1626 51.9134 39.2549 51.6726 39.2549Z" fill="white"/>
<defs>
<clipPath id="clip0_7047_19092">
<rect width="38.7326" height="28.0812" fill="white" transform="translate(15.8735 10.683)"/>
</clipPath>
</defs>
</svg>
