<svg width="53" height="53" viewBox="0 0 53 53" fill="none" xmlns="http://www.w3.org/2000/svg">
<circle cx="23.5" cy="23.5" r="23.5" fill="#F2F2F2"/>
<g clip-path="url(#clip0_7047_19077)">
<path d="M46.6196 29.6005H44.9396C45.0196 27.4605 44.4196 25.3805 43.1196 23.6205C41.9196 22.0005 40.2396 20.8405 38.3596 20.2605L38.3996 20.0205C38.5396 19.1005 39.3796 18.4405 40.3196 18.6005C41.1196 18.7005 41.8996 18.1605 42.0196 17.3405C42.1396 16.5205 41.5796 15.7605 40.7596 15.6405C39.5196 15.4605 38.2796 15.7605 37.2796 16.5205C36.2796 17.2605 35.6196 18.3605 35.4396 19.6005L35.3996 19.8205C34.0596 19.8405 32.7596 20.1605 31.5396 20.7205C30.6396 19.2005 29.2396 18.0405 27.5396 17.4405C25.7996 16.7805 23.9396 16.8005 22.2396 17.4405L23.7196 11.0405C23.8996 10.2405 23.3996 9.42045 22.5996 9.24045C21.7996 9.04045 20.9796 9.56045 20.7996 10.3605L19.7796 14.7605L16.6196 9.70045C16.1796 9.00045 15.2596 8.78045 14.5596 9.22045C13.8596 9.66045 13.6396 10.6005 14.0796 11.3005L17.2396 16.3605L12.8396 15.3405C12.0196 15.1405 11.2196 15.6605 11.0396 16.4605C10.8596 17.2605 11.3596 18.0805 12.1596 18.2605L18.5396 19.7405C17.2396 20.9805 16.3796 22.6405 16.1596 24.4805C15.9596 26.3205 16.4196 28.1005 17.3996 29.6005H13.8396C13.0196 29.6005 12.3396 30.2805 12.3396 31.1005C12.3396 40.9605 20.3596 49.0005 30.2396 49.0005C40.0996 49.0005 48.1396 40.9805 48.1396 31.1005C48.1196 30.2805 47.4596 29.6005 46.6196 29.6005ZM40.7196 25.4205C41.6196 26.6405 42.0396 28.1005 41.9596 29.6005H34.7396L32.6796 23.4605C33.8596 22.8805 35.1596 22.6805 36.4596 22.8605C38.1796 23.1205 39.6996 24.0205 40.7196 25.4205ZM20.5196 28.7205C19.4796 27.6805 18.9796 26.2605 19.1396 24.8205C19.2996 23.3805 20.0996 22.1005 21.3396 21.3205L22.4196 20.6605C23.6596 19.9005 25.1596 19.7205 26.5196 20.2205C27.8996 20.7205 28.9396 21.7805 29.4196 23.1605L31.5796 29.5805H21.4196L20.5196 28.7205Z" fill="#EA1D2C"/>
</g>
<path d="M44.5 49C48.6421 49 52 45.6421 52 41.5C52 37.3579 48.6421 34 44.5 34C40.3579 34 37 37.3579 37 41.5C37 45.6421 40.3579 49 44.5 49Z" fill="#5972EE"/>
<path d="M43.6726 45.2549C43.4318 45.2549 43.2063 45.1575 43.0372 44.9935L40.2652 42.2215C39.9116 41.8679 39.9116 41.2992 40.2652 40.9507C40.6187 40.5972 41.1875 40.5972 41.5359 40.9507L43.6726 43.0874L48.4635 38.2658C48.8119 37.9123 49.3858 37.9123 49.7342 38.2607C50.0877 38.6091 50.0877 39.1779 49.7393 39.5314L44.3079 44.9935C44.1389 45.1626 43.9134 45.2549 43.6726 45.2549Z" fill="white"/>
<defs>
<clipPath id="clip0_7047_19077">
<rect width="37.12" height="40" fill="white" transform="translate(11 9)"/>
</clipPath>
</defs>
</svg>
