<svg width="57" height="50" viewBox="0 0 57 50" fill="none" xmlns="http://www.w3.org/2000/svg">
<circle cx="23.5" cy="23.5" r="23.5" fill="#F2F2F2"/>
<g clip-path="url(#clip0_7047_19144)">
<path fill-rule="evenodd" clip-rule="evenodd" d="M14.8335 37.0623L14.8335 15.979C14.8335 14.139 16.3477 12.6248 18.1877 12.6248L49.7168 12.6248C51.5568 12.6248 53.071 14.139 53.071 15.979L53.071 37.0623C53.071 38.9023 51.5569 40.4165 49.7169 40.4165L18.1877 40.4165C16.3477 40.4165 14.8335 38.9023 14.8335 37.0623ZM32.0194 31.7495L22.436 31.7495C21.6502 31.7495 20.9985 32.4012 20.9985 33.187C20.9985 33.9728 21.6502 34.6245 22.436 34.6245L32.0194 34.6245C32.8052 34.6245 33.4569 33.992 33.4569 33.187C33.4569 32.382 32.8052 31.7495 32.0194 31.7495Z" fill="#EA1D2C"/>
<path d="M49.5 42C53.6421 42 57 38.6421 57 34.5C57 30.3579 53.6421 27 49.5 27C45.3579 27 42 30.3579 42 34.5C42 38.6421 45.3579 42 49.5 42Z" fill="#5972EE"/>
<path d="M48.6726 38.2549C48.4318 38.2549 48.2063 38.1575 48.0372 37.9935L45.2652 35.2215C44.9116 34.8679 44.9116 34.2992 45.2652 33.9507C45.6187 33.5972 46.1875 33.5972 46.5359 33.9507L48.6726 36.0874L53.4635 31.2658C53.8119 30.9123 54.3858 30.9123 54.7342 31.2607C55.0877 31.6091 55.0877 32.1779 54.7393 32.5314L49.3079 37.9935C49.1389 38.1626 48.9134 38.2549 48.6726 38.2549Z" fill="white"/>
</g>
<defs>
<clipPath id="clip0_7047_19144">
<rect width="46" height="46" fill="white" transform="translate(11 50) rotate(-90)"/>
</clipPath>
</defs>
</svg>
