<svg width="57" height="47" viewBox="0 0 57 47" fill="none" xmlns="http://www.w3.org/2000/svg">
<circle cx="23.5" cy="23.5" r="23.5" fill="#F2F2F2"/>
<path d="M48.2487 12.1573H21.7513C21.3381 12.1573 21 12.4954 21 12.9086V41.0739C21 41.4871 21.3381 41.8252 21.7513 41.8252H48.2487C48.6619 41.8252 49 41.4871 49 41.0739V12.9086C49 12.4879 48.6619 12.1573 48.2487 12.1573Z" fill="#EA1D2C"/>
<path d="M35.8441 1.69214C32.0727 1.69214 29 4.75734 29 8.53625V16.2368C29 16.3946 29.1277 16.5223 29.2855 16.5223H31.5393C31.6971 16.5223 31.8248 16.3946 31.8248 16.2368V8.53625C31.8248 6.31999 33.6279 4.50942 35.8516 4.50942C38.0679 4.50942 39.8709 6.31248 39.8709 8.53625V16.2368C39.8709 16.3946 39.9987 16.5223 40.1564 16.5223H42.4103C42.568 16.5223 42.6957 16.3946 42.6957 16.2368V8.52874C42.6807 4.75734 39.608 1.69214 35.8441 1.69214Z" fill="#EA1D2C"/>
<path d="M49.5 44.9998C53.6421 44.9998 57 41.6419 57 37.4998C57 33.3576 53.6421 29.9998 49.5 29.9998C45.3579 29.9998 42 33.3576 42 37.4998C42 41.6419 45.3579 44.9998 49.5 44.9998Z" fill="#5972EE"/>
<path d="M48.6726 41.2546C48.4318 41.2546 48.2063 41.1573 48.0372 40.9933L45.2652 38.2212C44.9116 37.8677 44.9116 37.2989 45.2652 36.9505C45.6187 36.597 46.1875 36.597 46.5359 36.9505L48.6726 39.0872L53.4635 34.2656C53.8119 33.912 54.3858 33.912 54.7342 34.2604C55.0877 34.6089 55.0877 35.1776 54.7393 35.5312L49.3079 40.9933C49.1389 41.1624 48.9134 41.2546 48.6726 41.2546Z" fill="white"/>
</svg>
