<svg width="61" height="61" viewBox="0 0 61 61" fill="none" xmlns="http://www.w3.org/2000/svg">
<path d="M30.5 61C47.3428 61 61 47.3428 61 30.5C61 13.6572 47.3428 0 30.5 0C13.6572 0 0 13.6572 0 30.5C0 47.3428 13.6572 61 30.5 61Z" fill="#F2F2F2"/>
<path d="M32.8637 6.48126C28.6106 6.48126 25.1455 9.93793 25.1455 14.1995V22.8835C25.1455 23.0614 25.2895 23.2054 25.4675 23.2054H28.0091C28.187 23.2054 28.3311 23.0614 28.3311 22.8835V14.1995C28.3311 11.7002 30.3644 9.65835 32.8722 9.65835C35.3715 9.65835 37.4048 11.6917 37.4048 14.1995V22.8835C37.4048 23.0614 37.5488 23.2054 37.7268 23.2054H40.2684C40.4463 23.2054 40.5904 23.0614 40.5904 22.8835V14.191C40.565 9.93793 37.1083 6.48126 32.8637 6.48126Z" fill="#EA1D2C"/>
<path d="M45.5974 18.2831H15.7159C15.2499 18.2831 14.8687 18.6643 14.8687 19.1303V50.8927C14.8687 51.3586 15.2499 51.7399 15.7159 51.7399H45.5974C46.0634 51.7399 46.4446 51.3586 46.4446 50.8927V19.1303C46.4446 18.6559 46.0634 18.2831 45.5974 18.2831Z" fill="#EA1D2C"/>
<path d="M29.5678 6.48126C25.3148 6.48126 21.8496 9.93793 21.8496 14.1995V22.8835C21.8496 23.0614 21.9936 23.2054 22.1716 23.2054H24.7132C24.8911 23.2054 25.0352 23.0614 25.0352 22.8835V14.1995C25.0352 11.7002 27.0685 9.65835 29.5763 9.65835C32.0756 9.65835 34.1089 11.6917 34.1089 14.1995V22.8835C34.1089 23.0614 34.2529 23.2054 34.4309 23.2054H36.9725C37.1504 23.2054 37.2945 23.0614 37.2945 22.8835V14.191C37.2775 9.93793 33.8124 6.48126 29.5678 6.48126Z" fill="#FCEBEA"/>
</svg>
