<svg width="24" height="24" viewBox="0 0 24 24" fill="none" xmlns="http://www.w3.org/2000/svg">
<path fill-rule="evenodd" clip-rule="evenodd" d="M4.846 11.1543C4.2993 11.711 4.2993 12.6135 4.846 13.1701L9.53476 17.9441C9.54277 17.9527 9.5509 17.9611 9.55914 17.9695C9.56739 17.9779 9.57571 17.9862 9.5841 17.9944L9.61428 18.0251C10.161 18.5817 11.0474 18.5817 11.5941 18.0251C11.6004 18.0186 11.6067 18.0121 11.6129 18.0055C11.6252 17.9938 11.6374 17.9818 11.6495 17.9695L19.6812 9.79175C20.2585 9.20402 20.2585 8.25113 19.6812 7.6634C19.104 7.07567 18.1681 7.07567 17.5909 7.6634L10.494 14.8893L6.82578 11.1543C6.27908 10.5977 5.3927 10.5977 4.846 11.1543Z" fill="#5972EE"/>
</svg>
