<svg width="61" height="61" viewBox="0 0 61 61" fill="none" xmlns="http://www.w3.org/2000/svg">
<path d="M30.5 61C47.3447 61 61 47.3447 61 30.5C61 13.6553 47.3447 0 30.5 0C13.6553 0 0 13.6553 0 30.5C0 47.3447 13.6553 61 30.5 61Z" fill="#F2F2F2"/>
<path fill-rule="evenodd" clip-rule="evenodd" d="M48.2418 43.8694C47.4768 46.9402 44.4584 48.8889 41.3449 48.322L14.6905 43.4691C12.7538 43.1165 11.1099 41.8384 10.3752 40.0121C9.98522 39.0429 9.54014 37.8913 9.09936 36.6547C7.31143 31.6359 7.42923 26.0617 9.70516 21.2575C11.1692 18.1654 13.626 14.9808 17.7235 12.5324C22.0722 9.93993 30.8188 7.60348 40.4259 12.9331C40.4495 12.9462 40.47 12.9574 40.4936 12.9706C41.2236 13.378 54.2418 20.8935 50.0788 36.4948L48.2418 43.8694Z" fill="#FF4E4E"/>
<path fill-rule="evenodd" clip-rule="evenodd" d="M53.6855 24.9834C53.1301 22.7541 50.9597 21.4551 48.6623 21.4551H30.7695C26.4953 21.4551 23.0288 24.9258 23.0288 29.2085C23.0288 33.4869 26.4953 36.9618 30.7695 36.9618L47.6972 39.3301C50.6235 39.7395 53.4811 37.9632 53.9464 35.0453C54.6085 30.8932 54.3272 27.5593 53.6855 24.9834Z" fill="#FF4E4E"/>
<path fill-rule="evenodd" clip-rule="evenodd" d="M50.0915 36.7178C51.2808 32.0886 51.0553 28.1557 50.109 24.8887C49.4785 22.7122 47.3284 21.4551 45.0625 21.4551H30.7061C26.4697 21.4551 23.0327 25.0142 23.0327 29.402C23.0327 33.6397 26.2387 37.1044 30.2744 37.3364C30.5613 37.3529 30.8489 37.3695 31.1334 37.4106L45.908 39.548C47.8239 39.8252 49.636 38.5992 50.0915 36.7178Z" fill="#FCEBEA"/>
<path d="M31.5852 32.2164C32.801 32.2164 33.7854 31.1226 33.7854 29.7722C33.7854 28.4176 32.801 27.328 31.5852 27.328C30.3694 27.328 29.385 28.4218 29.385 29.7722C29.385 31.1226 30.3694 32.2164 31.5852 32.2164Z" fill="#FF4E4E"/>
</svg>
