<svg width="57" height="54" viewBox="0 0 57 54" fill="none" xmlns="http://www.w3.org/2000/svg">
<path d="M39.9 19.95C39.9 30.9681 30.9681 39.9 19.95 39.9C8.93192 39.9 0 30.9681 0 19.95C0 8.93192 8.93192 0 19.95 0C30.9681 0 39.9 8.93192 39.9 19.95Z" fill="#F2F2F2"/>
<g clip-path="url(#clip0_7874_21928)">
<path d="M46.586 13.3582H23.5668C21.7581 13.3582 20.2783 15.0846 20.2783 17.1947V44.0504C20.2783 46.1605 21.7581 47.887 23.5668 47.887H46.586C48.3947 47.887 49.8745 46.1605 49.8745 44.0504V17.1947C49.8745 15.0846 48.3947 13.3582 46.586 13.3582ZM30.1437 40.2139H26.8552V26.786H30.1437V40.2139ZM36.7206 40.2139H33.4322V21.0312H36.7206V40.2139ZM43.2975 40.2139H40.0091V32.5408H43.2975V40.2139Z" fill="#5972EE"/>
</g>
<g clip-path="url(#clip1_7874_21928)">
<path d="M54.122 12.5266C54.3735 12.1015 54.5043 11.6142 54.5043 11.1139C54.5043 10.4062 54.2428 9.72482 53.748 9.20834C53.7476 9.20789 53.7472 9.20745 53.7468 9.20701L52.4244 7.81861L52.422 7.81607C51.5782 6.93639 50.2336 6.78891 49.2219 7.37362C48.928 6.23045 47.9164 5.34351 46.6643 5.34351H44.7851C43.5315 5.34351 42.519 6.23255 42.2264 7.37768C41.2116 6.77926 39.888 6.92865 39.0274 7.82586L37.6932 9.2168L38.3799 9.87541L37.6932 9.21681C36.8271 10.1198 36.7069 11.4897 37.3163 12.5296C36.1556 12.8347 35.3291 13.9282 35.3291 15.1594V17.1185C35.3291 18.3535 36.1609 19.4501 37.3274 19.7512C37.0759 20.1763 36.9451 20.6636 36.9451 21.164C36.9451 21.8722 37.2071 22.5542 37.7026 23.0708L39.0274 24.452L39.7491 23.7597L39.0274 24.452C39.8735 25.3341 41.2155 25.4766 42.2294 24.8962C42.5138 26.0451 43.5342 26.9343 44.7851 26.9343H46.6643C47.921 26.9343 48.9355 26.0408 49.2252 24.8915C49.6212 25.1245 50.0737 25.2495 50.5446 25.2495C51.2608 25.2495 51.9342 24.9605 52.4314 24.4422L53.7562 23.061C54.2517 22.5444 54.5137 21.8624 54.5137 21.1542C54.5137 20.6538 54.3829 20.1665 54.1314 19.7414C55.2979 19.4403 56.1297 18.3437 56.1297 17.1087V15.1594H56.1297L56.1296 15.1494C56.1174 13.9224 55.2884 12.8273 54.122 12.5266ZM46.8387 16.1389C46.8387 16.8409 46.2986 17.3429 45.7247 17.3429C45.1508 17.3429 44.6107 16.8409 44.6107 16.1389C44.6107 15.4369 45.1508 14.9349 45.7247 14.9349C46.2986 14.9349 46.8387 15.4369 46.8387 16.1389Z" fill="#00218A" stroke="white" stroke-width="2"/>
</g>
<defs>
<clipPath id="clip0_7874_21928">
<rect width="39.4615" height="46.0384" fill="white" transform="translate(15.3457 7.60327)"/>
</clipPath>
<clipPath id="clip1_7874_21928">
<rect width="22.5494" height="23.509" fill="white" transform="translate(34.4502 4.38477)"/>
</clipPath>
</defs>
</svg>
