<svg width="57" height="52" viewBox="0 0 57 52" fill="none" xmlns="http://www.w3.org/2000/svg">
<path d="M41.5625 20.7812C41.5625 32.2584 32.2584 41.5625 20.7812 41.5625C9.30408 41.5625 0 32.2584 0 20.7812C0 9.30408 9.30408 0 20.7812 0C32.2584 0 41.5625 9.30408 41.5625 20.7812Z" fill="#F2F2F2"/>
<path d="M43.8132 16.6309H16.9827C15.1381 16.6309 13.6289 18.1401 13.6289 19.9847V38.4306C13.6289 40.2752 15.1381 41.7844 16.9827 41.7844H22.0134L20.3365 43.4613V46.8152H40.4594V43.4613L38.7825 41.7844H43.8132C45.6578 41.7844 47.167 40.2752 47.167 38.4306V19.9847C47.167 18.1401 45.6578 16.6309 43.8132 16.6309ZM43.8132 38.4306H16.9827V19.9847H43.8132V38.4306Z" fill="#5972EE"/>
<path d="M46.9369 9.73013L47.644 10.4372L46.9369 9.73013L46.489 10.178L35.832 20.8349L35.8216 20.8455C35.8164 20.8508 35.8044 20.8631 35.79 20.8791C35.7668 20.9049 35.7055 20.9745 35.6493 21.0789C35.6466 21.0833 35.6443 21.087 35.6425 21.0899C35.6416 21.0913 35.6409 21.0925 35.6403 21.0935C35.6394 21.0949 35.6386 21.0961 35.6379 21.0973C35.6091 21.1352 35.538 21.2311 35.4755 21.3599C35.4636 21.3822 35.452 21.406 35.441 21.4311C35.4268 21.4635 35.414 21.4972 35.4029 21.5322L35.3661 21.6243V21.6446L33.1883 28.188C33.1883 28.1881 33.1882 28.1882 33.1882 28.1884C32.976 28.8256 33.1459 29.5151 33.5961 29.9878L33.6045 29.9966L33.6131 30.0052C33.9508 30.3429 34.4121 30.522 34.8699 30.522C35.0305 30.522 35.2292 30.5025 35.4435 30.4257L41.9737 28.2522H41.9941L42.0861 28.2154C42.1211 28.2043 42.1549 28.1916 42.1873 28.1774C42.2137 28.1658 42.2385 28.1536 42.2617 28.141C42.303 28.1208 42.3372 28.1014 42.3613 28.087L42.3808 28.0792H42.5007L42.7936 27.7863L53.4505 17.1293L53.8984 16.6815L53.9007 16.6791C55.8051 14.762 55.8051 11.6471 53.8882 9.73013L53.1811 10.4372L53.8882 9.73013C52.0218 7.86372 48.8033 7.86372 46.9369 9.73013ZM42.7716 27.7981C42.7722 27.7975 42.7727 27.797 42.7732 27.7965C42.7776 27.7921 42.7763 27.7935 42.7716 27.7981ZM42.0865 28.0792H42.0942C42.0821 28.0794 42.0778 28.0792 42.0865 28.0792ZM37.6599 25.9639L37.8535 25.38L38.2422 25.7688L37.6599 25.9639ZM50.7021 11.8674C50.9524 11.9204 51.1913 12.0428 51.3869 12.2355C51.5802 12.4295 51.703 12.6693 51.7557 12.921L50.7021 11.8674Z" fill="#00218A" stroke="white" stroke-width="2"/>
</svg>
