<svg width="57" height="57" viewBox="0 0 57 57" fill="none" xmlns="http://www.w3.org/2000/svg">
<circle cx="21.4352" cy="21.4352" r="21.4352" fill="#F2F2F2"/>
<g clip-path="url(#clip0_7874_21936)">
<path fill-rule="evenodd" clip-rule="evenodd" d="M45.4219 9.5H23.651C21.751 9.5 20.1875 11.0635 20.1875 12.9635V45.5208C20.1875 47.4208 21.751 48.9844 23.651 48.9844H37.2246C34.2188 46.9209 32.2104 43.51 32.0703 39.6228H29.5885C28.7771 39.6228 28.1042 38.9697 28.1042 38.1384C28.1042 37.3072 28.7771 36.6541 29.5885 36.6541H32.3333C32.561 35.6062 32.9271 34.6099 33.4114 33.6853H29.5885C28.7771 33.6853 28.1042 33.0322 28.1042 32.2009C28.1042 31.3697 28.7771 30.7166 29.5885 30.7166H35.6153C37.7581 28.6112 40.6961 27.3125 43.9375 27.3125C45.7033 27.3125 47.3792 27.6979 48.8854 28.3892V12.9635C48.8854 11.0635 47.3219 9.5 45.4219 9.5ZM39.4844 27.7478H29.5885C28.7771 27.7478 28.1042 27.0947 28.1042 26.2634C28.1042 25.4322 28.7771 24.7791 29.5885 24.7791H39.4844C40.2958 24.7791 40.9688 25.452 40.9688 26.2634C40.9688 27.0749 40.2958 27.7478 39.4844 27.7478ZM36.5156 21.8103H32.5573C31.7458 21.8103 31.0729 21.1374 31.0729 20.3259C31.0729 19.5145 31.7458 18.8416 32.5573 18.8416H36.5156C37.3271 18.8416 38 19.5145 38 20.3259C38 21.1374 37.3271 21.8103 36.5156 21.8103Z" fill="#5972EE"/>
<path fill-rule="evenodd" clip-rule="evenodd" d="M34.2436 39.1776C34.2436 33.725 38.5865 29.2917 43.9278 29.2917C49.2595 29.2917 53.612 33.725 53.612 39.1776C53.612 44.6302 49.2691 49.0635 43.9278 49.0635C38.5865 49.0635 34.2436 44.6302 34.2436 39.1776ZM44.6549 45.2338V44.2146C46.0799 44.0562 47.2044 42.8391 47.2044 41.325C47.2044 39.7219 45.9248 38.4156 44.3544 38.4156H43.5013C42.7355 38.4156 42.1054 37.7724 42.1054 36.9906C42.1054 36.2089 42.7355 35.5656 43.5013 35.5656H46.0508C46.4482 35.5656 46.7778 35.2292 46.7778 34.8234C46.7778 34.4177 46.4482 34.0812 46.0508 34.0812H44.6549V33.0917C44.6549 32.6859 44.3253 32.3495 43.9278 32.3495C43.5304 32.3495 43.2008 32.6859 43.2008 33.0917V34.1208C41.7758 34.2792 40.6513 35.4964 40.6513 37.0005C40.6513 38.6036 41.9309 39.9099 43.5013 39.9099H44.3544C45.1202 39.9099 45.7503 40.5531 45.7503 41.3349C45.7503 42.1167 45.1202 42.7599 44.3544 42.7599H41.8049C41.4074 42.7599 41.0778 43.0964 41.0778 43.5021C41.0778 43.9078 41.4074 44.2443 41.8049 44.2443H43.2008V45.2338C43.2008 45.6396 43.5304 45.976 43.9278 45.976C44.3253 45.976 44.6549 45.6396 44.6549 45.2338Z" fill="#5972EE"/>
<path fill-rule="evenodd" clip-rule="evenodd" d="M34.2436 39.2618C34.2436 33.8092 38.5865 29.3759 43.9278 29.3759C49.2595 29.3759 53.612 33.8092 53.612 39.2618C53.612 44.7144 49.2691 49.1478 43.9278 49.1478C38.5865 49.1478 34.2436 44.7144 34.2436 39.2618ZM44.6549 45.3181V44.2988C46.0799 44.1405 47.2044 42.9233 47.2044 41.4092C47.2044 39.8061 45.9248 38.4998 44.3544 38.4998H43.5013C42.7355 38.4998 42.1054 37.8566 42.1054 37.0749C42.1054 36.2931 42.7355 35.6499 43.5013 35.6499H46.0508C46.4482 35.6499 46.7778 35.3134 46.7778 34.9077C46.7778 34.5019 46.4482 34.1655 46.0508 34.1655H44.6549V33.1759C44.6549 32.7702 44.3253 32.4337 43.9278 32.4337C43.5304 32.4337 43.2008 32.7702 43.2008 33.1759V34.2051C41.7758 34.3634 40.6513 35.5806 40.6513 37.0847C40.6513 38.6879 41.9309 39.9941 43.5013 39.9941H44.3544C45.1202 39.9941 45.7503 40.6374 45.7503 41.4191C45.7503 42.2009 45.1202 42.8441 44.3544 42.8441H41.8049C41.4074 42.8441 41.0778 43.1806 41.0778 43.5863C41.0778 43.992 41.4074 44.3285 41.8049 44.3285H43.2008V45.3181C43.2008 45.7238 43.5304 46.0603 43.9278 46.0603C44.3253 46.0603 44.6549 45.7238 44.6549 45.3181Z" fill="#00218A"/>
</g>
<defs>
<clipPath id="clip0_7874_21936">
<rect width="47.5" height="47.5" fill="white" transform="translate(9.5 9.5)"/>
</clipPath>
</defs>
</svg>
