<svg width="232" height="193" viewBox="0 0 232 193" fill="none" xmlns="http://www.w3.org/2000/svg">
<g opacity="0.4">
<path d="M95.0737 32.8852L110.666 29.9885L117.416 66.3098L101.824 69.2065L95.0737 32.8852Z" fill="#00218A"/>
<path d="M42.0134 0L58.1768 5.84971L44.5719 43.4826L28.4084 37.6409L42.0134 0Z" fill="#5972EE"/>
<path d="M49.3993 155.439L54.7898 140.521L89.5142 153.066L84.1236 167.992L49.3993 155.439Z" fill="#0047BB"/>
<path d="M6.73411 137.077L3.8147e-05 122.715L33.429 107.024L40.1631 121.387L6.73411 137.077Z" fill="#5972EE"/>
<path d="M41.3781 68.0879L78.5161 87.021L70.1729 102.695L33.0349 83.7622L41.3781 68.0879Z" fill="#0047BB"/>
<path d="M117.512 87.496L131.632 98.2701L105.444 133.738L91.3244 122.964L117.512 87.496Z" fill="#5972EE"/>
<path d="M154.603 146.926L166.108 157.845L140.7 184.64L129.187 173.721L154.603 146.926Z" fill="#00218A"/>
<path d="M181.651 108.183L197.501 107.772L198.475 144.689L182.625 145.099L181.651 108.183Z" fill="#5972EE"/>
<path d="M232 163.47L194.693 193L183.679 179.08L220.986 149.55L232 163.47Z" fill="#0047BB"/>
</g>
</svg>
